<?xml version="1.0" standalone="no"?>
<!DOCTYPE svg PUBLIC "-//W3C//DTD SVG 20010904//EN"
 "http://www.w3.org/TR/2001/REC-SVG-20010904/DTD/svg10.dtd">
<svg version="1.0" xmlns="http://www.w3.org/2000/svg"
 width="96.000000pt" height="96.000000pt" viewBox="0 0 96.000000 96.000000"
 preserveAspectRatio="xMidYMid meet">
<metadata>
Created by potrace 1.11, written by Peter Selinger 2001-2013
</metadata>
<g transform="translate(0.000000,96.000000) scale(0.100000,-0.100000)"
fill="#000000" stroke="none">
<path d="M303 760 c-3 -11 -14 -20 -24 -20 -12 0 -19 -7 -19 -20 0 -13 -7 -20
-20 -20 -13 0 -20 -7 -20 -20 0 -13 7 -20 20 -20 12 0 20 -7 20 -17 0 -11 16
-26 40 -37 22 -11 37 -23 33 -27 -5 -4 -57 -10 -118 -14 -60 -3 -115 -11 -122
-17 -7 -6 -13 -28 -13 -49 0 -36 2 -39 28 -39 l27 -1 -27 -16 c-51 -32 -61
-87 -27 -143 25 -40 36 -50 104 -90 l50 -30 241 0 c269 0 284 3 355 67 88 80
92 162 8 200 -24 11 -45 31 -56 53 -10 19 -29 50 -42 68 -23 31 -27 32 -78 29
-60 -4 -67 0 -48 26 12 16 25 18 107 13 51 -2 112 -8 136 -11 l42 -7 0 42 0
42 -42 -7 c-24 -3 -84 -9 -134 -11 -88 -5 -93 -4 -140 25 -26 17 -60 31 -75
31 -18 0 -28 6 -32 20 -5 18 -14 20 -87 20 -73 0 -82 -2 -87 -20z m577 -100
c0 -13 -7 -20 -20 -20 -13 0 -20 7 -20 20 0 13 7 20 20 20 13 0 20 -7 20 -20z"/>
</g>
</svg>
